<?xml version="1.0" encoding="UTF-8" standalone="no"?>
<svg
   width="700pt"
   height="700pt"
   version="1.1"
   viewBox="0 0 700 700"
   id="svg11327"
   sodipodi:docname="2a.svg"
   inkscape:version="1.2.1 (9c6d41e410, 2022-07-14)"
   xmlns:inkscape="http://www.inkscape.org/namespaces/inkscape"
   xmlns:sodipodi="http://sodipodi.sourceforge.net/DTD/sodipodi-0.dtd"
   xmlns="http://www.w3.org/2000/svg"
   xmlns:svg="http://www.w3.org/2000/svg">
  <sodipodi:namedview
     id="namedview11329"
     pagecolor="#ffffff"
     bordercolor="#000000"
     borderopacity="0.25"
     inkscape:showpageshadow="2"
     inkscape:pageopacity="0.0"
     inkscape:pagecheckerboard="0"
     inkscape:deskcolor="#d1d1d1"
     inkscape:document-units="pt"
     showgrid="false"
     inkscape:zoom="0.31403117"
     inkscape:cx="-227.6844"
     inkscape:cy="-9.5531917"
     inkscape:window-width="1920"
     inkscape:window-height="1009"
     inkscape:window-x="-8"
     inkscape:window-y="-8"
     inkscape:window-maximized="1"
     inkscape:current-layer="g11325" />
  <defs
     id="defs11239">
    <symbol
       id="u"
       overflow="visible">
      <path
         d="m20.844-1.25c-1.0742 0.5625-2.1953 0.98438-3.3594 1.2656-1.168 0.28125-2.3828 0.42188-3.6406 0.42188-3.7812 0-6.7773-1.0508-8.9844-3.1562-2.2109-2.1133-3.3125-4.9766-3.3125-8.5938 0-3.625 1.1016-6.4922 3.3125-8.6094 2.207-2.1133 5.2031-3.1719 8.9844-3.1719 1.2578 0 2.4727 0.14844 3.6406 0.4375 1.1641 0.28125 2.2852 0.69922 3.3594 1.25v4.7031c-1.0859-0.73828-2.1523-1.2812-3.2031-1.625-1.0547-0.34375-2.1641-0.51562-3.3281-0.51562-2.0859 0-3.7266 0.66797-4.9219 2-1.1992 1.3359-1.7969 3.1797-1.7969 5.5312 0 2.3359 0.59766 4.1719 1.7969 5.5156 1.1953 1.3359 2.8359 2 4.9219 2 1.1641 0 2.2734-0.17188 3.3281-0.51562 1.0508-0.34375 2.1172-0.88281 3.2031-1.625z"
         id="path11176" />
    </symbol>
    <symbol
       id="b"
       overflow="visible">
      <path
         d="m15.25-12.375c-0.48047-0.22656-0.95312-0.39453-1.4219-0.5-0.46875-0.10156-0.94531-0.15625-1.4219-0.15625-1.3984 0-2.4766 0.44922-3.2344 1.3438-0.75 0.89844-1.125 2.1797-1.125 3.8438v7.8438h-5.4375v-17.016h5.4375v2.7969c0.69531-1.1133 1.5-1.9258 2.4062-2.4375 0.90625-0.50781 1.9922-0.76562 3.2656-0.76562 0.17578 0 0.36719 0.011719 0.57812 0.03125 0.21875 0.011719 0.53125 0.042969 0.9375 0.09375z"
         id="path11179" />
    </symbol>
    <symbol
       id="a"
       overflow="visible">
      <path
         d="m19.594-8.5469v1.5469h-12.719c0.13281 1.2734 0.59766 2.2305 1.3906 2.875 0.78906 0.63672 1.8945 0.95312 3.3125 0.95312 1.1445 0 2.3164-0.16406 3.5156-0.5 1.1953-0.34375 2.4297-0.85938 3.7031-1.5469v4.1875c-1.293 0.49219-2.5859 0.85547-3.875 1.0938-1.2812 0.25-2.5625 0.375-3.8438 0.375-3.0859 0-5.4805-0.78125-7.1875-2.3438-1.6992-1.5625-2.5469-3.7539-2.5469-6.5781 0-2.7812 0.83203-4.9609 2.5-6.5469 1.6758-1.5938 3.9844-2.3906 6.9219-2.3906 2.6758 0 4.8164 0.80859 6.4219 2.4219 1.6016 1.6055 2.4062 3.7578 2.4062 6.4531zm-5.5938-1.8125c0-1.0312-0.30469-1.8633-0.90625-2.5-0.59375-0.63281-1.3828-0.95312-2.3594-0.95312-1.0547 0-1.9062 0.29688-2.5625 0.89062s-1.0703 1.4492-1.2344 2.5625z"
         id="path11182" />
    </symbol>
    <symbol
       id="e"
       overflow="visible">
      <path
         d="m10.234-7.6562c-1.1367 0-1.9922 0.19531-2.5625 0.57812-0.5625 0.38672-0.84375 0.95312-0.84375 1.7031 0 0.6875 0.22656 1.2305 0.6875 1.625 0.45703 0.38672 1.0977 0.57812 1.9219 0.57812 1.0195 0 1.8789-0.36328 2.5781-1.0938 0.69531-0.73828 1.0469-1.6602 1.0469-2.7656v-0.625zm8.3125-2.0469v9.7031h-5.4844v-2.5156c-0.73047 1.0312-1.5547 1.7812-2.4688 2.25-0.90625 0.46875-2.0117 0.70312-3.3125 0.70312-1.7617 0-3.1953-0.50781-4.2969-1.5312-1.0938-1.0312-1.6406-2.3672-1.6406-4.0156 0-1.9883 0.67969-3.4453 2.0469-4.375 1.375-0.9375 3.5312-1.4062 6.4688-1.4062h3.2031v-0.42188c0-0.86328-0.33984-1.4922-1.0156-1.8906-0.67969-0.40625-1.7344-0.60938-3.1719-0.60938-1.168 0-2.2578 0.12109-3.2656 0.35938-1 0.23047-1.9297 0.57812-2.7812 1.0469v-4.1562c1.1641-0.28125 2.332-0.49219 3.5-0.64062 1.1758-0.14453 2.3516-0.21875 3.5312-0.21875 3.0703 0 5.2852 0.60547 6.6406 1.8125 1.3633 1.2109 2.0469 3.1797 2.0469 5.9062z"
         id="path11185" />
    </symbol>
    <symbol
       id="d"
       overflow="visible">
      <path
         d="m8.5469-21.844v4.8281h5.6094v3.8906h-5.6094v7.2188c0 0.79297 0.15625 1.3281 0.46875 1.6094 0.32031 0.27344 0.94531 0.40625 1.875 0.40625h2.7969v3.8906h-4.6719c-2.1484 0-3.668-0.44531-4.5625-1.3438-0.89844-0.89453-1.3438-2.4141-1.3438-4.5625v-7.2188h-2.7031v-3.8906h2.7031v-4.8281z"
         id="path11188" />
    </symbol>
    <symbol
       id="i"
       overflow="visible">
      <path
         d="m14.188-14.516v-9.125h5.4688v23.641h-5.4688v-2.4531c-0.75 1-1.5781 1.7344-2.4844 2.2031-0.89844 0.45703-1.9375 0.6875-3.125 0.6875-2.0938 0-3.8203-0.83203-5.1719-2.5-1.3438-1.6641-2.0156-3.8047-2.0156-6.4219 0-2.625 0.67188-4.7695 2.0156-6.4375 1.3516-1.6641 3.0781-2.5 5.1719-2.5 1.1758 0 2.2188 0.23438 3.125 0.70312s1.7344 1.2031 2.4844 2.2031zm-3.5781 11c1.1562 0 2.0391-0.42188 2.6562-1.2656 0.61328-0.85156 0.92188-2.0859 0.92188-3.7031 0-1.625-0.30859-2.8594-0.92188-3.7031-0.61719-0.85156-1.5-1.2812-2.6562-1.2812s-2.043 0.42969-2.6562 1.2812c-0.61719 0.84375-0.92188 2.0781-0.92188 3.7031 0 1.6172 0.30469 2.8516 0.92188 3.7031 0.61328 0.84375 1.5 1.2656 2.6562 1.2656z"
         id="path11191" />
    </symbol>
    <symbol
       id="h"
       overflow="visible">
      <path
         d="m11.672-3.5156c1.1562 0 2.0391-0.42188 2.6562-1.2656 0.61328-0.85156 0.92188-2.0859 0.92188-3.7031 0-1.625-0.30859-2.8594-0.92188-3.7031-0.61719-0.85156-1.5-1.2812-2.6562-1.2812-1.168 0-2.0625 0.42969-2.6875 1.2812-0.625 0.85547-0.9375 2.0898-0.9375 3.7031 0 1.6055 0.3125 2.8359 0.9375 3.6875 0.625 0.85547 1.5195 1.2812 2.6875 1.2812zm-3.625-11c0.75-1 1.5781-1.7344 2.4844-2.2031 0.91406-0.46875 1.9688-0.70312 3.1562-0.70312 2.0938 0 3.8125 0.83594 5.1562 2.5 1.3516 1.668 2.0312 3.8125 2.0312 6.4375 0 2.6172-0.67969 4.7578-2.0312 6.4219-1.3438 1.668-3.0625 2.5-5.1562 2.5-1.1875 0-2.2422-0.23438-3.1562-0.70312-0.90625-0.46875-1.7344-1.1953-2.4844-2.1875v2.4531h-5.4375v-23.641h5.4375z"
         id="path11194" />
    </symbol>
    <symbol
       id="g"
       overflow="visible">
      <path
         d="m0.375-17.016h5.4375l4.5781 11.547 3.8906-11.547h5.4375l-7.1562 18.625c-0.71875 1.8945-1.5586 3.2188-2.5156 3.9688-0.96094 0.75781-2.2188 1.1406-3.7812 1.1406h-3.1562v-3.5781h1.7031c0.92578 0 1.5977-0.14844 2.0156-0.4375 0.41406-0.29297 0.74219-0.82031 0.98438-1.5781l0.14062-0.46875z"
         id="path11197" />
    </symbol>
    <symbol
       id="f"
       overflow="visible">
      <path
         d="m2.6094-17.016h5.4375v17.016h-5.4375zm0-6.625h5.4375v4.4375h-5.4375z"
         id="path11200" />
    </symbol>
    <symbol
       id="t"
       overflow="visible">
      <path
         d="m2.6094-23.641h5.4375v23.641h-5.4375z"
         id="path11203" />
    </symbol>
    <symbol
       id="s"
       overflow="visible">
      <path
         d="m15.906-16.484v4.1406c-1.168-0.48828-2.293-0.85156-3.375-1.0938-1.0859-0.25-2.1055-0.375-3.0625-0.375-1.043 0-1.8125 0.13281-2.3125 0.39062-0.5 0.26172-0.75 0.65625-0.75 1.1875 0 0.4375 0.1875 0.77734 0.5625 1.0156 0.38281 0.23047 1.0664 0.40234 2.0469 0.51562l0.96875 0.125c2.7812 0.35547 4.6484 0.9375 5.6094 1.75 0.96875 0.8125 1.4531 2.0859 1.4531 3.8125 0 1.8125-0.67188 3.1797-2.0156 4.0938-1.3359 0.90625-3.3281 1.3594-5.9844 1.3594-1.1172 0-2.2773-0.089844-3.4844-0.26562-1.1992-0.17578-2.4297-0.44141-3.6875-0.79688v-4.125c1.082 0.52344 2.1914 0.91797 3.3281 1.1875 1.1328 0.26172 2.2891 0.39062 3.4688 0.39062 1.0625 0 1.8594-0.14453 2.3906-0.4375 0.53906-0.30078 0.8125-0.73828 0.8125-1.3125 0-0.48828-0.1875-0.84766-0.5625-1.0781-0.36719-0.23828-1.1016-0.42578-2.2031-0.5625l-0.95312-0.125c-2.418-0.30078-4.1172-0.85938-5.0938-1.6719-0.96875-0.82031-1.4531-2.0703-1.4531-3.75 0-1.8008 0.61328-3.1328 1.8438-4 1.2383-0.875 3.1328-1.3125 5.6875-1.3125 1 0 2.0508 0.078125 3.1562 0.23438 1.1016 0.14844 2.3047 0.38281 3.6094 0.70312z"
         id="path11206" />
    </symbol>
    <symbol
       id="c"
       overflow="visible">
      <path
         d="m10.703-13.531c-1.1992 0-2.1172 0.43359-2.75 1.2969-0.63672 0.86719-0.95312 2.1172-0.95312 3.75 0 1.625 0.31641 2.8711 0.95312 3.7344 0.63281 0.86719 1.5508 1.2969 2.75 1.2969 1.1875 0 2.0938-0.42969 2.7188-1.2969 0.63281-0.86328 0.95312-2.1094 0.95312-3.7344 0-1.6328-0.32031-2.8828-0.95312-3.75-0.625-0.86328-1.5312-1.2969-2.7188-1.2969zm0-3.8906c2.9258 0 5.2109 0.79297 6.8594 2.375 1.6445 1.5742 2.4688 3.7617 2.4688 6.5625 0 2.793-0.82422 4.9805-2.4688 6.5625-1.6484 1.5742-3.9336 2.3594-6.8594 2.3594-2.9375 0-5.2344-0.78516-6.8906-2.3594-1.6484-1.582-2.4688-3.7695-2.4688-6.5625 0-2.8008 0.82031-4.9883 2.4688-6.5625 1.6562-1.582 3.9531-2.375 6.8906-2.375z"
         id="path11209" />
    </symbol>
    <symbol
       id="r"
       overflow="visible">
      <path
         d="m13.812-23.641v3.5781h-3.0156c-0.77344 0-1.3086 0.14062-1.6094 0.42188-0.30469 0.27344-0.45312 0.75-0.45312 1.4375v1.1875h4.6406v3.8906h-4.6406v13.125h-5.4375v-13.125h-2.7031v-3.8906h2.7031v-1.1875c0-1.8516 0.51562-3.2227 1.5469-4.1094 1.0312-0.88281 2.6289-1.3281 4.7969-1.3281z"
         id="path11212" />
    </symbol>
    <symbol
       id="q"
       overflow="visible">
      <path
         d="m18.375-14.188c0.6875-1.0508 1.5039-1.8516 2.4531-2.4062 0.94531-0.55078 1.9883-0.82812 3.125-0.82812 1.957 0 3.4453 0.60547 4.4688 1.8125 1.0195 1.1992 1.5312 2.9492 1.5312 5.25v10.359h-5.4688v-8.875c0.007813-0.125 0.015625-0.25781 0.015625-0.40625 0.007812-0.14453 0.015625-0.34766 0.015625-0.60938 0-1.207-0.17969-2.082-0.53125-2.625-0.35547-0.53906-0.92969-0.8125-1.7188-0.8125-1.0312 0-1.8281 0.42969-2.3906 1.2812-0.5625 0.85547-0.85547 2.0859-0.875 3.6875v8.3594h-5.4688v-8.875c0-1.8828-0.16406-3.0977-0.48438-3.6406-0.32422-0.53906-0.90234-0.8125-1.7344-0.8125-1.043 0-1.8516 0.43359-2.4219 1.2969-0.5625 0.85547-0.84375 2.0742-0.84375 3.6562v8.375h-5.4688v-17.016h5.4688v2.5c0.66406-0.96875 1.4297-1.6914 2.2969-2.1719 0.875-0.48828 1.832-0.73438 2.875-0.73438 1.1758 0 2.2109 0.28906 3.1094 0.85938 0.90625 0.5625 1.5859 1.3555 2.0469 2.375z"
         id="path11215" />
    </symbol>
    <symbol
       id="p"
       overflow="visible">
      <path
         d="m19.719-10.359v10.359h-5.4688v-7.9062c0-1.4766-0.039062-2.4922-0.10938-3.0469-0.0625-0.5625-0.17188-0.97656-0.32812-1.25-0.21875-0.35156-0.51172-0.62891-0.875-0.82812-0.36719-0.19531-0.77734-0.29688-1.2344-0.29688-1.1367 0-2.0312 0.44531-2.6875 1.3281-0.64844 0.875-0.96875 2.0859-0.96875 3.625v8.375h-5.4375v-23.641h5.4375v9.125c0.82031-1 1.6914-1.7344 2.6094-2.2031 0.92578-0.46875 1.9453-0.70312 3.0625-0.70312 1.957 0 3.4453 0.60547 4.4688 1.8125 1.0195 1.1992 1.5312 2.9492 1.5312 5.25z"
         id="path11218" />
    </symbol>
    <symbol
       id="o"
       overflow="visible">
      <path
         d="m2.8594-22.672h6.5312l8.25 15.547v-15.547h5.5469v22.672h-6.5469l-8.2344-15.562v15.562h-5.5469z"
         id="path11221" />
    </symbol>
    <symbol
       id="n"
       overflow="visible">
      <path
         d="m2.4375-6.625v-10.391h5.4688v1.7031c0 0.92969-0.007812 2.0898-0.015625 3.4844-0.011719 1.3867-0.015625 2.3125-0.015625 2.7812 0 1.3672 0.03125 2.3516 0.09375 2.9531 0.070312 0.60547 0.19531 1.043 0.375 1.3125 0.21875 0.35547 0.50391 0.63281 0.85938 0.82812 0.36328 0.1875 0.78125 0.28125 1.25 0.28125 1.1328 0 2.0234-0.42969 2.6719-1.2969 0.64453-0.875 0.96875-2.0859 0.96875-3.6406v-8.4062h5.4375v17.016h-5.4375v-2.4531c-0.82422 0.99219-1.6953 1.7188-2.6094 2.1875-0.91797 0.46875-1.9297 0.70312-3.0312 0.70312-1.9609 0-3.4531-0.59766-4.4844-1.7969-1.0234-1.207-1.5312-2.9609-1.5312-5.2656z"
         id="path11224" />
    </symbol>
    <symbol
       id="m"
       overflow="visible">
      <path
         d="m19.719-10.359v10.359h-5.4688v-7.9219c0-1.4688-0.039062-2.4766-0.10938-3.0312-0.0625-0.5625-0.17188-0.97656-0.32812-1.25-0.21875-0.35156-0.51172-0.62891-0.875-0.82812-0.36719-0.19531-0.77734-0.29688-1.2344-0.29688-1.1367 0-2.0312 0.44531-2.6875 1.3281-0.64844 0.875-0.96875 2.0859-0.96875 3.625v8.375h-5.4375v-17.016h5.4375v2.5c0.82031-1 1.6914-1.7344 2.6094-2.2031 0.92578-0.46875 1.9453-0.70312 3.0625-0.70312 1.957 0 3.4453 0.60547 4.4688 1.8125 1.0195 1.1992 1.5312 2.9492 1.5312 5.25z"
         id="path11227" />
    </symbol>
    <symbol
       id="l"
       overflow="visible">
      <path
         d="m2.8594-22.672h9.7031c2.8828 0 5.0977 0.64062 6.6406 1.9219 1.5508 1.2812 2.3281 3.1055 2.3281 5.4688 0 2.375-0.77734 4.2031-2.3281 5.4844-1.543 1.2812-3.7578 1.9219-6.6406 1.9219h-3.8594v7.875h-5.8438zm5.8438 4.2344v6.3281h3.2344c1.1328 0 2.0078-0.27344 2.625-0.82812 0.625-0.55078 0.9375-1.332 0.9375-2.3438 0-1.0078-0.3125-1.7852-0.9375-2.3281-0.61719-0.55078-1.4922-0.82812-2.625-0.82812z"
         id="path11230" />
    </symbol>
    <symbol
       id="k"
       overflow="visible">
      <path
         d="m2.6094-17.016h5.4375v16.719c0 2.2695-0.54688 4.0039-1.6406 5.2031-1.0938 1.207-2.6797 1.8125-4.75 1.8125h-2.6875v-3.5781h0.9375c1.0312 0 1.7383-0.23438 2.125-0.70312 0.38281-0.46094 0.57812-1.3711 0.57812-2.7344zm0-6.625h5.4375v4.4375h-5.4375z"
         id="path11233" />
    </symbol>
    <symbol
       id="j"
       overflow="visible">
      <path
         d="m16.359-16.484v4.4375c-0.74219-0.50781-1.4844-0.88281-2.2344-1.125-0.74219-0.23828-1.5117-0.35938-2.3125-0.35938-1.5117 0-2.6953 0.44531-3.5469 1.3281-0.84375 0.88672-1.2656 2.125-1.2656 3.7188 0 1.5859 0.42188 2.8203 1.2656 3.7031 0.85156 0.88672 2.0352 1.3281 3.5469 1.3281 0.85156 0 1.6602-0.125 2.4219-0.375 0.76953-0.25 1.4766-0.625 2.125-1.125v4.4531c-0.85547 0.3125-1.7188 0.54688-2.5938 0.70312s-1.75 0.23438-2.625 0.23438c-3.0742 0-5.4766-0.78516-7.2031-2.3594-1.7305-1.5703-2.5938-3.7578-2.5938-6.5625 0-2.8125 0.86328-5.0039 2.5938-6.5781 1.7266-1.5703 4.1289-2.3594 7.2031-2.3594 0.88281 0 1.7578 0.078125 2.625 0.23438 0.86328 0.15625 1.7266 0.39062 2.5938 0.70312z"
         id="path11236" />
    </symbol>
  </defs>
  <g
     id="g11325">
    <path
       d="m422.24 191.17-24.891-24.891c-3.2422-3.2422-8.4922-3.2422-11.734 0l-43.91 43.91-10.727-10.727c-3.2422-3.2422-8.4922-3.2422-11.734 0l-24.891 24.891c-3.2422 3.2422-3.2422 8.4922 0 11.734l41.484 41.484c3.2422 3.2422 8.4922 3.2422 11.734 0l74.668-74.668c3.2383-3.2422 3.2383-8.4922 0-11.734zm-80.531 68.797-29.75-29.746 13.152-13.152 10.727 10.727c3.2422 3.2422 8.4922 3.2422 11.734 0l43.91-43.91 13.152 13.152z"
       id="path11241"
       inkscape:export-filename="2.png"
       inkscape:export-xdpi="96"
       inkscape:export-ydpi="96" />
    <path
       d="m555.78 327.82c-25.102-14.117-57.941-22.164-92.934-22.867 29.617-43.797 44.668-99.543 44.781-165.98 0.007813-3.0195-1.6289-5.8008-4.2695-7.2656l-149.33-82.961c-2.5078-1.3945-5.5508-1.3945-8.0586 0l-149.33 82.961c-2.6328 1.4609-4.2617 4.2305-4.2695 7.2383 0 3.2031 0.26172 75.477 31.715 142.48-26.867 2.9258-51.656 10.305-71.566 21.512-27.801 15.645-43.109 36.953-43.109 60.027 0 14.148 6.8438 25.164 14.609 34.191l-21.723 36.207c-2.3594 3.9258-1.082 9.0234 2.8438 11.379 1.9727 1.1836 4.3438 1.4922 6.5508 0.86328l54.906-15.688c24.309 10.477 53.219 16.004 83.844 16.004 31.078 0 60.66-5.8125 84.945-16.496 24.875 25.66 70.988 41.383 122.46 41.383h39.332l72.789 40.438c4.0078 2.2266 9.0547 0.78516 11.281-3.2227 1.4062-2.5391 1.3867-5.625-0.050781-8.1445l-28.789-50.383c29.668-15.598 46.48-37.738 46.48-61.645 0-23.07-15.309-44.383-43.109-60.023zm-346.7-184.05 140.91-78.289 141 78.332c-0.87109 65.973-17.328 120.29-48.938 161.6-13.023 0.82031-25.961 2.7578-38.652 5.793 36.816-34.547 57.648-84.23 61.91-147.73 0.21094-3.2031-1.4453-6.2461-4.25-7.8086l-107.04-59.473c-2.5078-1.3945-5.5508-1.3945-8.0586 0l-106.32 59.066c-2.8984 1.6133-4.5625 4.7969-4.2266 8.1016 1.8789 18.324 6.168 46.164 15.898 74.715 4.9609 14.859 11.41 29.184 19.258 42.746-6.6172-0.53906-13.332-0.81641-20.137-0.82422-2.8555 0-5.707 0.070312-8.5312 0.16016-27.875-55.645-32.176-118.73-32.828-136.38zm181.78 156.48c-6.8867 6.3203-14.344 11.996-22.277 16.941-6.1992-5.4766-12.973-10.254-20.211-14.262-16.078-9.0469-35.344-15.594-56.312-19.32-9.918-14.113-18.336-31.219-25.031-50.879-7.0742-21.324-11.934-43.324-14.496-65.645l97.465-54.145 98.375 54.648c-4.7812 57.359-24.117 101.97-57.512 132.66zm-140.42 129.08c-29.051 0-57.395-5.6016-79.82-15.766-1.793-0.80859-3.8125-0.95703-5.707-0.42188l-37.594 10.738 14.082-23.465c1.918-3.1914 1.4688-7.2656-1.0898-9.9688-10.168-10.75-14.316-18.715-14.316-27.488 0-16.812 12.309-32.996 34.652-45.566 23.852-13.414 55.738-20.809 89.793-20.809 34.055 0 65.941 7.3867 89.793 20.809 22.344 12.57 34.652 28.754 34.652 45.566s-12.309 32.996-34.652 45.566c-23.852 13.414-55.738 20.805-89.793 20.805zm286.96 9.0312c-4.1758 1.8867-6.0352 6.8008-4.1484 10.977 0.10547 0.23828 0.23047 0.47266 0.35938 0.70312l18.441 32.273-48.688-27.047c-1.2383-0.6875-2.6211-1.0469-4.0352-1.0469h-41.484c-43.887 0-84.312-12.633-106.82-32.773 26.109-15.48 40.445-36.164 40.445-58.488-0.070312-9.9062-2.8359-19.602-8.0195-28.043 21.492-8.7031 47.5-13.441 74.387-13.441 34.055 0 65.941 7.3867 89.793 20.809 22.344 12.57 34.652 28.754 34.652 45.566 0.003907 19.219-16.352 37.629-44.887 50.512z"
       id="path11243" />
    <path
       d="m291.93 362.96c0 4.582-3.7148 8.293-8.2969 8.293-4.5781 0-8.293-3.7109-8.293-8.293 0-4.582 3.7148-8.293 8.293-8.293 4.582 0 8.2969 3.7109 8.2969 8.293"
       id="path11245" />
    <path
       d="m258.74 362.96c0 4.582-3.7148 8.293-8.293 8.293-4.582 0-8.2969-3.7109-8.2969-8.293 0-4.582 3.7148-8.293 8.2969-8.293 4.5781 0 8.293 3.7109 8.293 8.293"
       id="path11247" />
    <path
       d="m225.55 362.96c0 4.582-3.7109 8.293-8.293 8.293s-8.293-3.7109-8.293-8.293c0-4.582 3.7109-8.293 8.293-8.293s8.293 3.7109 8.293 8.293"
       id="path11249" />
    <path
       d="m499.33 387.85c0 4.5781-3.7109 8.293-8.293 8.293-4.582 0-8.293-3.7148-8.293-8.293 0-4.582 3.7109-8.2969 8.293-8.2969 4.582 0 8.293 3.7148 8.293 8.2969"
       id="path11251" />
    <path
       d="m466.14 387.85c0 4.5781-3.7148 8.293-8.293 8.293-4.582 0-8.2969-3.7148-8.2969-8.293 0-4.582 3.7148-8.2969 8.2969-8.2969 4.5781 0 8.293 3.7148 8.293 8.2969"
       id="path11253" />
    <path
       d="m432.96 387.85c0 4.5781-3.7148 8.293-8.293 8.293-4.582 0-8.2969-3.7148-8.2969-8.293 0-4.582 3.7148-8.2969 8.2969-8.2969 4.5781 0 8.293 3.7148 8.293 8.2969"
       id="path11255" />
  </g>
</svg>
