<?xml version="1.0" encoding="UTF-8" standalone="no"?>
<svg
   width="700pt"
   height="700pt"
   version="1.1"
   viewBox="0 0 700 700"
   id="svg9691"
   sodipodi:docname="6.svg"
   inkscape:version="1.2.1 (9c6d41e410, 2022-07-14)"
   xmlns:inkscape="http://www.inkscape.org/namespaces/inkscape"
   xmlns:sodipodi="http://sodipodi.sourceforge.net/DTD/sodipodi-0.dtd"
   xmlns="http://www.w3.org/2000/svg"
   xmlns:svg="http://www.w3.org/2000/svg">
  <sodipodi:namedview
     id="namedview9693"
     pagecolor="#ffffff"
     bordercolor="#000000"
     borderopacity="0.25"
     inkscape:showpageshadow="2"
     inkscape:pageopacity="0.0"
     inkscape:pagecheckerboard="0"
     inkscape:deskcolor="#d1d1d1"
     inkscape:document-units="pt"
     showgrid="false"
     inkscape:zoom="0.44410714"
     inkscape:cx="-293.84801"
     inkscape:cy="479.614"
     inkscape:window-width="1920"
     inkscape:window-height="1009"
     inkscape:window-x="-8"
     inkscape:window-y="-8"
     inkscape:window-maximized="1"
     inkscape:current-layer="g9689" />
  <defs
     id="defs9647">
    <symbol
       id="m"
       overflow="visible">
      <path
         d="m29.312-1.75c-1.5117 0.78125-3.0898 1.3711-4.7344 1.7656-1.6367 0.40625-3.3398 0.60938-5.1094 0.60938-5.3125 0-9.5273-1.4844-12.641-4.4531-3.1055-2.9688-4.6562-7-4.6562-12.094s1.5508-9.125 4.6562-12.094c3.1133-2.9688 7.3281-4.4531 12.641-4.4531 1.7695 0 3.4727 0.19922 5.1094 0.59375 1.6445 0.39844 3.2227 0.99219 4.7344 1.7812v6.5938c-1.5312-1.0391-3.0391-1.8008-4.5156-2.2812-1.4805-0.48828-3.0391-0.73438-4.6719-0.73438-2.9375 0-5.2461 0.94531-6.9219 2.8281-1.6797 1.875-2.5156 4.4648-2.5156 7.7656 0 3.293 0.83594 5.8828 2.5156 7.7656 1.6758 1.875 3.9844 2.8125 6.9219 2.8125 1.6328 0 3.1914-0.23828 4.6719-0.71875 1.4766-0.48828 2.9844-1.2539 4.5156-2.2969z"
         id="path9608" />
    </symbol>
    <symbol
       id="h"
       overflow="visible">
      <path
         d="m21.453-17.406c-0.67969-0.3125-1.3516-0.53906-2.0156-0.6875-0.65625-0.15625-1.3203-0.23438-1.9844-0.23438-1.9688 0-3.4844 0.63281-4.5469 1.8906-1.0547 1.2617-1.5781 3.0703-1.5781 5.4219v11.016h-7.6562v-23.922h7.6562v3.9219c0.97656-1.5625 2.1016-2.7031 3.375-3.4219 1.2812-0.71875 2.8125-1.0781 4.5938-1.0781 0.25 0 0.52344 0.011719 0.82812 0.03125 0.30078 0.023438 0.73438 0.070312 1.2969 0.14062z"
         id="path9611" />
    </symbol>
    <symbol
       id="a"
       overflow="visible">
      <path
         d="m27.562-12.031v2.1875h-17.891c0.1875 1.793 0.83203 3.1367 1.9375 4.0312 1.1133 0.89844 2.6719 1.3438 4.6719 1.3438 1.6016 0 3.25-0.23438 4.9375-0.70312 1.6875-0.47656 3.4219-1.2031 5.2031-2.1719v5.8906c-1.8047 0.6875-3.6094 1.2031-5.4219 1.5469-1.8125 0.35156-3.6211 0.53125-5.4219 0.53125-4.3359 0-7.7031-1.0977-10.109-3.2969-2.3984-2.207-3.5938-5.2969-3.5938-9.2656 0-3.9062 1.1758-6.9727 3.5312-9.2031 2.3633-2.2383 5.6094-3.3594 9.7344-3.3594 3.7578 0 6.7695 1.1367 9.0312 3.4062 2.2578 2.2617 3.3906 5.2812 3.3906 9.0625zm-7.8594-2.5312c0-1.457-0.42969-2.6289-1.2812-3.5156-0.84375-0.89453-1.9492-1.3438-3.3125-1.3438-1.4922 0-2.6992 0.41797-3.625 1.25-0.91797 0.83594-1.4922 2.0391-1.7188 3.6094z"
         id="path9614" />
    </symbol>
    <symbol
       id="b"
       overflow="visible">
      <path
         d="m14.391-10.766c-1.5938 0-2.793 0.27344-3.5938 0.8125-0.80469 0.54297-1.2031 1.3398-1.2031 2.3906 0 0.96875 0.32031 1.7305 0.96875 2.2812 0.64453 0.54297 1.5469 0.8125 2.7031 0.8125 1.4375 0 2.6445-0.51562 3.625-1.5469 0.98828-1.0312 1.4844-2.3203 1.4844-3.875v-0.875zm11.688-2.8906v13.656h-7.7031v-3.5469c-1.0312 1.4492-2.1875 2.5078-3.4688 3.1719s-2.8398 1-4.6719 1c-2.4805 0-4.4961-0.72266-6.0469-2.1719-1.543-1.4453-2.3125-3.3203-2.3125-5.625 0-2.8125 0.96094-4.8672 2.8906-6.1719 1.9375-1.3125 4.9688-1.9688 9.0938-1.9688h4.5156v-0.60938c0-1.207-0.48047-2.0938-1.4375-2.6562-0.94922-0.5625-2.4375-0.84375-4.4688-0.84375-1.6367 0-3.1562 0.16797-4.5625 0.5-1.4062 0.32422-2.7188 0.8125-3.9375 1.4688v-5.8281c1.6445-0.40625 3.2891-0.70703 4.9375-0.90625 1.6562-0.20703 3.3047-0.3125 4.9531-0.3125 4.3203 0 7.4375 0.85547 9.3438 2.5625 1.9141 1.6992 2.875 4.4609 2.875 8.2812z"
         id="path9617" />
    </symbol>
    <symbol
       id="g"
       overflow="visible">
      <path
         d="m12.031-30.719v6.7969h7.875v5.4688h-7.875v10.141c0 1.1172 0.21875 1.8711 0.65625 2.2656 0.4375 0.38672 1.3125 0.57812 2.625 0.57812h3.9375v5.4688h-6.5625c-3.0234 0-5.1641-0.62891-6.4219-1.8906-1.2617-1.2578-1.8906-3.3984-1.8906-6.4219v-10.141h-3.7969v-5.4688h3.7969v-6.7969z"
         id="path9620" />
    </symbol>
    <symbol
       id="f"
       overflow="visible">
      <path
         d="m19.953-20.422v-12.812h7.6875v33.234h-7.6875v-3.4531c-1.0547 1.4062-2.2148 2.4375-3.4844 3.0938-1.2734 0.65625-2.7422 0.98438-4.4062 0.98438-2.9492 0-5.3711-1.1719-7.2656-3.5156-1.8867-2.3438-2.8281-5.3594-2.8281-9.0469s0.94141-6.7031 2.8281-9.0469c1.8945-2.3438 4.3164-3.5156 7.2656-3.5156 1.6562 0 3.1172 0.33594 4.3906 1 1.2812 0.65625 2.4453 1.6836 3.5 3.0781zm-5.0469 15.484c1.6445 0 2.8945-0.59766 3.75-1.7969 0.86328-1.1953 1.2969-2.9297 1.2969-5.2031 0-2.2812-0.43359-4.0195-1.2969-5.2188-0.85547-1.1953-2.1055-1.7969-3.75-1.7969-1.625 0-2.8711 0.60156-3.7344 1.7969-0.85547 1.1992-1.2812 2.9375-1.2812 5.2188 0 2.2734 0.42578 4.0078 1.2812 5.2031 0.86328 1.1992 2.1094 1.7969 3.7344 1.7969z"
         id="path9623" />
    </symbol>
    <symbol
       id="e"
       overflow="visible">
      <path
         d="m16.406-4.9375c1.6328 0 2.8828-0.59766 3.75-1.7969 0.86328-1.1953 1.2969-2.9297 1.2969-5.2031 0-2.2812-0.43359-4.0195-1.2969-5.2188-0.86719-1.1953-2.1172-1.7969-3.75-1.7969-1.6367 0-2.8906 0.60547-3.7656 1.8125-0.875 1.1992-1.3125 2.9336-1.3125 5.2031 0 2.2617 0.4375 3.9961 1.3125 5.2031 0.875 1.1992 2.1289 1.7969 3.7656 1.7969zm-5.0781-15.484c1.0508-1.3945 2.2188-2.4219 3.5-3.0781 1.2812-0.66406 2.7539-1 4.4219-1 2.9453 0 5.3672 1.1719 7.2656 3.5156 1.8945 2.3438 2.8438 5.3594 2.8438 9.0469s-0.94922 6.7031-2.8438 9.0469c-1.8984 2.3438-4.3203 3.5156-7.2656 3.5156-1.668 0-3.1406-0.33594-4.4219-1s-2.4492-1.6914-3.5-3.0781v3.4531h-7.6562v-33.234h7.6562z"
         id="path9626" />
    </symbol>
    <symbol
       id="d"
       overflow="visible">
      <path
         d="m0.53125-23.922h7.6562l6.4219 16.234 5.4688-16.234h7.6562l-10.062 26.188c-1.0117 2.6641-2.1953 4.5234-3.5469 5.5781-1.3438 1.0625-3.1211 1.5938-5.3281 1.5938h-4.4219v-5.0156h2.3906c1.3008 0 2.2422-0.21094 2.8281-0.625 0.59375-0.40625 1.0547-1.1484 1.3906-2.2188l0.20312-0.65625z"
         id="path9629" />
    </symbol>
    <symbol
       id="c"
       overflow="visible">
      <path
         d="m4.0156-31.891h13.656c4.0508 0 7.1602 0.90234 9.3281 2.7031 2.1758 1.8047 3.2656 4.3711 3.2656 7.7031 0 3.3438-1.0898 5.918-3.2656 7.7188-2.168 1.8047-5.2773 2.7031-9.3281 2.7031h-5.4375v11.062h-8.2188zm8.2188 5.9531v8.9062h4.5625c1.5938 0 2.8203-0.38281 3.6875-1.1562 0.875-0.78125 1.3125-1.8789 1.3125-3.2969 0-1.4258-0.4375-2.5234-1.3125-3.2969-0.86719-0.76953-2.0938-1.1562-3.6875-1.1562z"
         id="path9632" />
    </symbol>
    <symbol
       id="l"
       overflow="visible">
      <path
         d="m3.4219-9.3125v-14.609h7.6875v2.3906c0 1.293-0.011719 2.918-0.03125 4.875-0.011719 1.9609-0.015625 3.2656-0.015625 3.9219 0 1.9297 0.046875 3.3125 0.14062 4.1562 0.10156 0.84375 0.28125 1.4609 0.53125 1.8438 0.3125 0.5 0.71875 0.88672 1.2188 1.1562 0.50781 0.27344 1.0938 0.40625 1.75 0.40625 1.5938 0 2.8438-0.60938 3.75-1.8281 0.91406-1.2266 1.375-2.9297 1.375-5.1094v-11.812h7.6406v23.922h-7.6406v-3.4531c-1.1562 1.3867-2.3828 2.4141-3.6719 3.0781-1.2812 0.66406-2.6992 1-4.25 1-2.7734 0-4.8828-0.84766-6.3281-2.5469-1.4375-1.6953-2.1562-4.1602-2.1562-7.3906z"
         id="path9635" />
    </symbol>
    <symbol
       id="k"
       overflow="visible">
      <path
         d="m22.359-23.172v5.7969c-1.6367-0.67578-3.2148-1.1875-4.7344-1.5312-1.5234-0.34375-2.9609-0.51562-4.3125-0.51562-1.4609 0-2.543 0.18359-3.25 0.54688-0.69922 0.36719-1.0469 0.92188-1.0469 1.6719 0 0.61719 0.26562 1.0898 0.79688 1.4219 0.53125 0.32422 1.4883 0.5625 2.875 0.71875l1.3438 0.1875c3.9141 0.5 6.5508 1.3242 7.9062 2.4688 1.3516 1.1367 2.0312 2.9219 2.0312 5.3594 0 2.5547-0.94531 4.4688-2.8281 5.75-1.875 1.2812-4.6797 1.9219-8.4062 1.9219-1.5859 0-3.2188-0.125-4.9062-0.375s-3.4219-0.625-5.2031-1.125v-5.8125c1.5195 0.74219 3.082 1.2969 4.6875 1.6719 1.6016 0.36719 3.2344 0.54688 4.8906 0.54688 1.4883 0 2.6094-0.20312 3.3594-0.60938 0.75781-0.41406 1.1406-1.0312 1.1406-1.8438 0-0.6875-0.26172-1.1953-0.78125-1.5312-0.52344-0.33203-1.5586-0.59375-3.1094-0.78125l-1.3438-0.17188c-3.4062-0.42578-5.793-1.2109-7.1562-2.3594-1.3672-1.1562-2.0469-2.9102-2.0469-5.2656 0-2.5312 0.86719-4.4062 2.6094-5.625 1.7383-1.2266 4.3984-1.8438 7.9844-1.8438 1.4062 0 2.8828 0.10938 4.4375 0.32812 1.5508 0.21094 3.2383 0.54297 5.0625 1z"
         id="path9638" />
    </symbol>
    <symbol
       id="j"
       overflow="visible">
      <path
         d="m20.125-15.984c0-3.9766-0.375-6.7852-1.125-8.4219-0.75-1.6328-2.0078-2.4531-3.7656-2.4531-1.7734 0-3.0391 0.82031-3.7969 2.4531-0.75 1.6367-1.125 4.4453-1.125 8.4219 0 4.0312 0.375 6.875 1.125 8.5312 0.75781 1.6484 2.0234 2.4688 3.7969 2.4688 1.75 0 3-0.82031 3.75-2.4688 0.75781-1.6562 1.1406-4.5 1.1406-8.5312zm8.2188 0.0625c0 5.293-1.1406 9.375-3.4219 12.25-2.2734 2.8672-5.5 4.2969-9.6875 4.2969-4.2109 0-7.4531-1.4297-9.7344-4.2969-2.2734-2.875-3.4062-6.957-3.4062-12.25 0-5.2891 1.1328-9.3672 3.4062-12.234 2.2812-2.875 5.5234-4.3125 9.7344-4.3125 4.1875 0 7.4141 1.4375 9.6875 4.3125 2.2812 2.8672 3.4219 6.9453 3.4219 12.234z"
         id="path9641" />
    </symbol>
    <symbol
       id="i"
       overflow="visible">
      <path
         d="m15.234-14.266c-1.543 0-2.7266 0.42188-3.5469 1.2656-0.82422 0.83594-1.2344 2.0312-1.2344 3.5938 0 1.5742 0.41016 2.7773 1.2344 3.6094 0.82031 0.83594 2.0039 1.25 3.5469 1.25 1.5195 0 2.6875-0.41406 3.5-1.25 0.8125-0.83203 1.2188-2.0352 1.2188-3.6094 0-1.5703-0.40625-2.7734-1.2188-3.6094-0.8125-0.83203-1.9805-1.25-3.5-1.25zm-6-2.7188c-1.9375-0.58203-3.4023-1.4766-4.3906-2.6875-0.98047-1.207-1.4688-2.7188-1.4688-4.5312 0-2.6875 1.0039-4.7344 3.0156-6.1406 2.0078-1.4141 4.957-2.125 8.8438-2.125 3.8516 0 6.7852 0.70312 8.7969 2.1094 2.0078 1.3984 3.0156 3.4492 3.0156 6.1562 0 1.8125-0.49609 3.3242-1.4844 4.5312-0.99219 1.2109-2.4531 2.1055-4.3906 2.6875 2.1641 0.60547 3.8008 1.5781 4.9062 2.9219 1.1016 1.3438 1.6562 3.043 1.6562 5.0938 0 3.1562-1.0547 5.5469-3.1562 7.1719-2.1055 1.6172-5.2188 2.4219-9.3438 2.4219-4.1484 0-7.2773-0.80469-9.3906-2.4219-2.1172-1.625-3.1719-4.0156-3.1719-7.1719 0-2.0508 0.55078-3.75 1.6562-5.0938 1.1016-1.3438 2.7383-2.3164 4.9062-2.9219zm1.9219-6.3906c0 1.2734 0.34766 2.25 1.0469 2.9375 0.70703 0.67969 1.7188 1.0156 3.0312 1.0156 1.2812 0 2.2695-0.33594 2.9688-1.0156 0.69531-0.6875 1.0469-1.6641 1.0469-2.9375 0-1.2578-0.35156-2.2266-1.0469-2.9062-0.69922-0.67578-1.6875-1.0156-2.9688-1.0156-1.3125 0-2.3242 0.34375-3.0312 1.0312-0.69922 0.67969-1.0469 1.6406-1.0469 2.8906z"
         id="path9644" />
    </symbol>
  </defs>
  <g
     id="g9689">
    <path
       d="m577.5 35h-35c0-2.3203-0.92188-4.5469-2.5625-6.1875s-3.8672-2.5625-6.1875-2.5625h-367.5c-4.832 0-8.75 3.918-8.75 8.75h-35c-9.2812 0-18.184 3.6875-24.75 10.25-6.5625 6.5664-10.25 15.469-10.25 24.75v70c0.011719 12.492 6.6836 24.027 17.5 30.273v162.23c0.019531 3.5312 2.1562 6.707 5.4258 8.0508 3.2578 1.3711 7.0195 0.64453 9.5352-1.8398l28.789-28.875 28.789 28.875c1.6484 1.6406 3.8867 2.5508 6.2109 2.5391 1.1484 0.03125 2.2852-0.21094 3.3242-0.69922 3.2695-1.3438 5.4062-4.5195 5.4258-8.0508v-143.24c15.211 21.652 34.711 39.949 57.289 53.754 22.578 13.801 47.754 22.816 73.961 26.484-0.050781 0.58203-0.050781 1.168 0 1.75v70h-43.75c-16.246 0-31.824 6.4531-43.309 17.941-11.488 11.484-17.941 27.062-17.941 43.309v131.25c0 2.3203 0.92188 4.5469 2.5625 6.1875s3.8672 2.5625 6.1875 2.5625h245c2.3203 0 4.5469-0.92188 6.1875-2.5625s2.5625-3.8672 2.5625-6.1875v-131.25c0-16.246-6.4531-31.824-17.941-43.309-11.484-11.488-27.062-17.941-43.309-17.941h-43.75v-70c0.050781-0.58203 0.050781-1.168 0-1.75 26.207-3.668 51.383-12.684 73.961-26.484 22.578-13.805 42.078-32.102 57.289-53.754v143.24c0 3.3125 1.8711 6.3438 4.8359 7.8281 2.9648 1.4805 6.5117 1.1602 9.1641-0.82812l29.75-22.312 29.75 22.312c2.6641 1.9844 6.2227 2.2891 9.1875 0.78906 2.9414-1.4844 4.8008-4.4961 4.8125-7.7891v-162.23c10.816-6.2461 17.488-17.781 17.5-30.273v-70c0-9.2812-3.6875-18.184-10.25-24.75-6.5664-6.5625-15.469-10.25-24.75-10.25zm-402.5 276.41-20.039-20.125c-1.6406-1.6562-3.8789-2.5898-6.2109-2.5898s-4.5703 0.93359-6.2109 2.5898l-20.039 20.125v-136.41h52.5zm-52.5-153.91c-4.6406 0-9.0938-1.8438-12.375-5.125s-5.125-7.7344-5.125-12.375v-70c0-4.6406 1.8438-9.0938 5.125-12.375s7.7344-5.125 12.375-5.125h35v26.25c-0.035156 27.152 5.7227 54 16.887 78.75zm341.25 245v122.5h-227.5v-122.5c0-11.602 4.6094-22.73 12.812-30.938 8.207-8.2031 19.336-12.812 30.938-12.812h140c11.602 0 22.73 4.6094 30.938 12.812 8.2031 8.207 12.812 19.336 12.812 30.938zm-122.5-61.25v-61.25h17.5v61.25zm8.75-87.5c-46.414 0-90.926-18.438-123.74-51.258-32.82-32.816-51.258-77.328-51.258-123.74v-35h350v35c0 30.719-8.0859 60.898-23.445 87.5-15.359 26.602-37.453 48.695-64.055 64.055-26.602 15.359-56.781 23.445-87.5 23.445zm227.5 61.25-21-15.75c-3.1094-2.332-7.3906-2.332-10.5 0l-21 15.75v-140h52.5zm17.5-175c0 4.6406-1.8438 9.0938-5.125 12.375s-7.7344 5.125-12.375 5.125h-51.887c11.164-24.75 16.922-51.598 16.887-78.75v-26.25h35c4.6406 0 9.0938 1.8438 12.375 5.125s5.125 7.7344 5.125 12.375z"
       id="path9649"
       inkscape:export-filename="6.png"
       inkscape:export-xdpi="96"
       inkscape:export-ydpi="96" />
    <path
       d="m350 376.25c-3.7617-0.007812-7.1094 2.3867-8.3125 5.9492l-12.426 37.801h-40.512c-3.7852 0.003906-7.1406 2.4375-8.3125 6.0391-1.168 3.6211 0.14062 7.582 3.2383 9.7969l32.551 23.102-12.426 37.273c-1.1875 3.6055 0.085938 7.5625 3.1484 9.8008 3.0586 2.207 7.1836 2.207 10.238 0l32.812-23.363 32.812 23.273v0.003906c1.4883 1.0391 3.2617 1.5898 5.0742 1.5742 1.8633-0.019531 3.6719-0.63281 5.1641-1.75 3.0625-2.2383 4.3359-6.1953 3.1484-9.8008l-12.426-37.273 32.551-23.102c3.2617-2.0938 4.7539-6.0781 3.6758-9.8008-1.3125-3.6523-4.875-6.0039-8.75-5.7734h-40.512l-11.988-37.801c-1.25-3.7227-4.8281-6.1523-8.75-5.9492zm33.773 61.25-15.398 10.676c-3.168 2.2031-4.5156 6.2188-3.3242 9.8867l6.0391 18.113-16.012-11.375h-0.003906c-3.0352-2.1641-7.1133-2.1641-10.148 0l-16.012 11.375 6.0391-18.113h-0.003906c1.1914-3.668-0.15625-7.6836-3.3242-9.8867l-15.398-10.676h19.336c3.7852-0.003906 7.1406-2.4375 8.3125-6.0391l6.125-18.461 6.125 18.461c1.1719 3.6016 4.5273 6.0352 8.3125 6.0391z"
       id="path9651" />
    <path
       d="m488.43 123.02c-4.543-1.6406-9.5547 0.71094-11.199 5.25-17.5 48.477-49.176 77.875-94.062 87.5-4.6523 0.92969-7.7188 5.3906-6.9141 10.062 0.84375 4.1406 4.5273 7.0859 8.75 7 0.60938 0.085937 1.2266 0.085937 1.8359 0 50.398-10.5 87.5-44.539 106.84-98.352l0.003906 0.003906c0.87109-2.2148 0.80078-4.6875-0.1875-6.8477-0.99219-2.1641-2.8203-3.8281-5.0625-4.6172z"
       id="path9653" />
    <path
       d="m498.75 52.5c-4.832 0-8.75 3.918-8.75 8.75-0.17969 8.3555-0.94141 16.688-2.2734 24.938-0.37891 2.3125 0.1875 4.6758 1.5703 6.5703 1.3789 1.8906 3.4609 3.1484 5.7773 3.4922h1.3125c4.3633 0.050781 8.0977-3.125 8.75-7.4375 1.4258-9.1211 2.2148-18.332 2.3633-27.562 0-2.3203-0.92188-4.5469-2.5625-6.1875s-3.8672-2.5625-6.1875-2.5625z"
       id="path9655" />
  </g>
</svg>
