<?xml version="1.0" encoding="UTF-8" standalone="no"?>
<!-- Created with Inkscape (http://www.inkscape.org/) -->

<svg
   width="95.25mm"
   height="25.740356mm"
   viewBox="0 0 95.25 25.740356"
   version="1.1"
   id="svg5361"
   inkscape:version="1.2.1 (9c6d41e410, 2022-07-14)"
   sodipodi:docname="TWS Workings Final.svg"
   xmlns:inkscape="http://www.inkscape.org/namespaces/inkscape"
   xmlns:sodipodi="http://sodipodi.sourceforge.net/DTD/sodipodi-0.dtd"
   xmlns="http://www.w3.org/2000/svg"
   xmlns:svg="http://www.w3.org/2000/svg">
  <sodipodi:namedview
     id="namedview5363"
     pagecolor="#ffffff"
     bordercolor="#000000"
     borderopacity="0.25"
     inkscape:showpageshadow="2"
     inkscape:pageopacity="0.0"
     inkscape:pagecheckerboard="0"
     inkscape:deskcolor="#d1d1d1"
     inkscape:document-units="px"
     showgrid="false"
     inkscape:zoom="0.22627417"
     inkscape:cx="1672.7495"
     inkscape:cy="490.55533"
     inkscape:window-width="1920"
     inkscape:window-height="1009"
     inkscape:window-x="-8"
     inkscape:window-y="-8"
     inkscape:window-maximized="1"
     inkscape:current-layer="layer1" />
  <defs
     id="defs5358" />
  <g
     inkscape:label="Layer 1"
     inkscape:groupmode="layer"
     id="layer1"
     transform="translate(3687.3084,-1231.5901)">
    <g
       id="g7233"
       transform="matrix(0.396875,0,0,0.396875,-2615.3556,632.80851)">
      <rect
         style="fill:#ffffff;stroke-width:4.00387;stroke-linecap:round;stroke-linejoin:round;paint-order:fill markers stroke"
         id="rect6048-4"
         width="240"
         height="64.858002"
         x="-2700.9834"
         y="1508.7411"
         inkscape:export-filename="web logo.webp"
         inkscape:export-xdpi="96"
         inkscape:export-ydpi="96" />
      <text
         xml:space="preserve"
         style="font-style:normal;font-variant:normal;font-weight:normal;font-stretch:normal;font-size:23.9101px;line-height:1;font-family:Comfortaa;-inkscape-font-specification:'Comfortaa, Normal';font-variant-ligatures:normal;font-variant-caps:normal;font-variant-numeric:normal;font-variant-east-asian:normal;fill:#4b4b4b;fill-opacity:1;stroke-width:4.13117;stroke-linecap:round;stroke-linejoin:round;paint-order:fill markers stroke"
         x="-2671.9253"
         y="1555.1555"
         id="text475-4-2"><tspan
           sodipodi:role="line"
           id="tspan473-09-6"
           x="-2671.9253"
           y="1555.1555"
           style="fill:#4b4b4b;fill-opacity:1;stroke-width:4.13117">topwise</tspan></text>
      <text
         xml:space="preserve"
         style="font-style:normal;font-variant:normal;font-weight:normal;font-stretch:normal;font-size:25.2029px;line-height:1;font-family:Comfortaa;-inkscape-font-specification:'Comfortaa, Normal';font-variant-ligatures:normal;font-variant-caps:normal;font-variant-numeric:normal;font-variant-east-asian:normal;fill:#4b4b4b;fill-opacity:1;stroke-width:4.35467;stroke-linecap:round;stroke-linejoin:round;paint-order:fill markers stroke"
         x="-2570.8384"
         y="1555.004"
         id="text581-6-1"><tspan
           sodipodi:role="line"
           id="tspan579-2-9"
           x="-2570.8384"
           y="1555.004"
           style="stroke-width:4.35467">support</tspan></text>
      <g
         id="g482-9-9-3-0-3-4-3-5"
         transform="matrix(0.01553076,0,0,0.01553076,-2633.2393,1512.0106)">
        <path
           style="fill:#1cc491;stroke-width:1.33333"
           d="m -3045.5857,3162.6521 c -51.0607,-11.1 -151.3849,-45.8625 -223.0434,-78.7527 -67.9834,-31.2032 -132.6383,-69.8459 -194.6128,-111.7333 -71.2677,-48.1685 -144.3087,-107.4246 -202.6666,-159.7496 -233.324,-236.0755 -400.9111,-486.4937 -466.9487,-808.1224 -25.5837,-127.9111 -28.7714,-264.5404 -20.2968,-390.8068 2.603,-37.7475 8.1276,-76.4728 13.8213,-112.6667 1.3292,-8.5035 2.393,-17.0495 3.8696,-25.5286 1.3514,-7.7599 2.7422,-15.065 4.565,-23.185 16.4982,79.9721 104.0607,144.6409 163.5308,146.7043 l 14.5412,0.013 14.7921,-4.0836 c 21.4966,-5.9344 25.2994,-7.4839 40.7921,-16.6204 7.7,-4.5411 16.1656,-9.2685 18.8125,-10.5057 15.8164,-7.3928 39.6773,-37.9362 49.2535,-58.2175 1.9258,-4.0787 7.9926,-36.2495 0.093,12.0019 -7.8998,48.2515 -6.8006,108.0999 -6.4206,162.2113 0.4762,67.816 0.1045,173.0536 10.9011,203.1608 1.2075,3.3672 5.7653,6.0432 9.2817,5.3865 5.4591,-1.0196 7.8558,-8.4855 10.42,-13 8.7651,-18.38 35.2514,-69.8194 54.3313,-103.9427 41.1147,-73.5314 104.6869,-133.9608 180.0273,-164.4575 94.3533,-38.1929 209.8332,-44.334 305.2421,-8.8601 136.4513,50.7339 264.9604,160.9541 322.2311,294.7935 51.5173,120.3937 43.254,272.4008 -8.3189,392.7707 -39.2919,91.7063 -120.0649,172.9182 -212.2783,211.0046 -112.0138,46.2644 -292.1084,20.0827 -363.5755,0.3555 -5.4923,6.0916 156.5982,150.1159 233.3334,199.5129 4.4,2.8278 12.0712,7.986 17.0471,11.463 4.9759,3.4769 13.2269,8.7297 18.3355,11.6729 5.1086,2.9432 18.4988,10.8667 29.756,17.6079 86.8147,48.6781 189.0863,104.9991 268.5015,144.4221 84.5014,41.9479 106.7746,68.3038 98.0323,154.6766 -18.082,99.2096 -80.9384,138.8973 -160.4184,127.4601 -7.7426,-1.1142 -22.9315,-4.985 -22.9315,-4.985 z"
           id="path486-1-0-1-1-2-4-2-2"
           sodipodi:nodetypes="saaccccacccsssszasacsaaaaaccsscscss" />
        <path
           style="fill:#0089b0;stroke-width:1.33333"
           d="m -4090.7925,1551.5149 c -22.6473,-22.0355 -40.7366,-53.3898 -42.0448,-84.9612 -0.2997,-7.2319 2.8494,-25.9 4.8063,-38.7766 4.4254,-29.1182 10.0878,-66.5785 15.6736,-86.9565 2.6131,-9.5333 5.9227,-21.8333 7.3546,-27.3333 1.4319,-5.5 4.6639,-16.5491 7.1822,-24.5536 2.5183,-8.0044 4.5787,-15.5761 4.5787,-16.8259 0,-4.0656 31.7189,-96.886 35.95,-105.202 1.3298,-2.6135 4.3084,-10.1159 6.6191,-16.6719 4.6232,-13.1166 14.4089,-35.7464 27.4217,-63.4133 4.6563,-9.9 10.6248,-23.1 13.2633,-29.3333 2.6386,-6.2334 5.7532,-13.1334 6.9214,-15.3334 2.5405,-4.7841 21.4893,-42.56709 35.7747,-71.33329 10.9797,-22.10943 12.3428,-24.58225 22.0483,-40 3.4623,-5.5 9.4623,-15.4 13.3335,-22 3.8711,-6.6 16.4051,-25.98479 27.8532,-43.07729 11.4482,-17.09251 21.7838,-32.83208 22.9681,-34.97683 1.1844,-2.14475 4.7501,-7.35996 7.9239,-11.58937 3.1738,-4.22942 8.2048,-10.97538 11.18,-14.99102 2.9752,-4.01565 10.1286,-12.68478 15.8964,-19.26476 10.292,-11.74132 17.559,-20.86588 25.5131,-32.03454 2.2,-3.08911 9.4834,-11.86774 16.1854,-19.50806 6.7019,-7.6403 17.5019,-19.97922 24,-27.41982 24.153,-27.65643 47.6132,-52.50252 54.4429,-57.659 3.8722,-2.92352 12.0649,-10.77882 18.206,-17.45622 6.1411,-6.6774 17.0264,-16.9488 24.1894,-22.82533 7.1631,-5.87653 18.6341,-15.60007 25.4912,-21.60785 11.6278,-10.18766 34.2761,-29.67795 50.6526,-43.58991 3.8847,-3.3 11.1437,-9.3 16.1313,-13.33333 4.9876,-4.03334 13.7074,-11.23334 19.3774,-16 533.7258,-428.199278 1445.3951,-465.028377 2070.7603,-3.38167 121.3768,92.45873 287.9988,271.75268 334.2186,388.49498 15.5956,39.39149 15.7355,88.58422 -1.9466,127.08431 -17.7701,38.6917 -45.2865,61.9442 -95.6042,84.7068 -74.631,28.671 -129.6541,18.2406 -187.2507,-66.5152 -183.3482,-253.27707 -437.0756,-406.0561 -790.6581,-478.8466 -96.5629,-13.17088 -175.3751,-20.91081 -133.4721,6.36952 79.0024,63.68611 149.1748,160.52823 170.6351,262.72366 29.8739,142.26173 4.1977,305.59112 -70.357,430.38072 -70.2533,117.59 -196.3436,205.5152 -325.6987,250.5729 -117.1021,40.7897 -240.1887,50.141 -371.9688,5.4316 -62.6844,-23.7592 -125.427,-59.5346 -176.137,-102.5572 -80.7018,-71.0638 -130.0747,-143.1301 -165.4521,-230.9833 -32.0888,-79.6866 -40.747,-169.2218 -36.9992,-255.04491 2.2341,-51.16022 18.9427,-110.81679 35.2248,-149.53411 4.6802,-11.12916 10.4923,-23.84086 14.6605,-36.16173 3.1064,-12.28108 8.9145,-22.0485 7.6497,-34.47316 -0.8311,-17.50485 -47.1043,23.75914 -55.6379,30.40005 -9.3401,7.33334 -19.2771,15.13334 -22.0821,17.33334 -2.8051,2.2 -10.9406,8.4512 -18.0791,13.89156 -182.0357,149.35217 -315.0398,328.65796 -381.2868,534.77506 -4.7072,15.0334 -10.9247,34.8334 -13.8167,44 -15.9273,48.4685 -37.4807,134.1265 -38.5285,139.2935 -4.1795,20.6104 -11.4901,33.8881 -16.1055,41.9208 -17.8658,31.0941 -50.3455,58.5279 -85.5822,65.1919 -56.3152,10.6505 -117.3849,-3.9709 -165.3792,-47.0452 z"
           id="path484-3-8-7-6-4-7-7-6"
           sodipodi:nodetypes="csassssssssssssssssssssssssssccsaccccaaaccaascccscccssac" />
      </g>
    </g>
  </g>
</svg>
