<?xml version="1.0" encoding="UTF-8" standalone="no"?>
<svg
   width="555.41876pt"
   height="555.4198pt"
   version="1.1"
   viewBox="0 0 555.41876 555.4198"
   id="svg8209"
   sodipodi:docname="1A.svg"
   inkscape:version="1.2.1 (9c6d41e410, 2022-07-14)"
   xmlns:inkscape="http://www.inkscape.org/namespaces/inkscape"
   xmlns:sodipodi="http://sodipodi.sourceforge.net/DTD/sodipodi-0.dtd"
   xmlns="http://www.w3.org/2000/svg"
   xmlns:svg="http://www.w3.org/2000/svg">
  <sodipodi:namedview
     id="namedview8211"
     pagecolor="#ffffff"
     bordercolor="#000000"
     borderopacity="0.25"
     inkscape:showpageshadow="2"
     inkscape:pageopacity="0.0"
     inkscape:pagecheckerboard="0"
     inkscape:deskcolor="#d1d1d1"
     inkscape:document-units="pt"
     showgrid="false"
     inkscape:zoom="0.44410714"
     inkscape:cx="124.96984"
     inkscape:cy="430.0764"
     inkscape:window-width="1920"
     inkscape:window-height="1009"
     inkscape:window-x="1912"
     inkscape:window-y="-3"
     inkscape:window-maximized="1"
     inkscape:current-layer="g8207" />
  <defs
     id="defs8125" />
  <g
     id="g8207"
     transform="translate(-72.29447,-2.2949995)">
    <path
       d="m 627.67,278.8 c -0.87891,-38.434 -32.395,-69.434 -71.043,-69.434 -38.645,0 -70.152,31.008 -71.035,69.434 -0.0234,0.40234 -0.0391,0.80078 -0.0391,1.1992 0,33.691 -11.996,57.922 -36.676,74.094 -9.6094,6.3008 -21.246,11.344 -34.609,15.074 2.6875,-7.4102 4.168,-15.398 4.168,-23.738 0,-38.086 -30.727,-69.113 -68.695,-69.648 -0.24609,-0.0117 -0.49219,-0.0117 -0.74609,-0.0156 -0.0859,0 -0.15625,-0.004 -0.23438,-0.004 l -257.400002,-0.004 c -10.527,0 -19.066,8.5391 -19.066,19.066 v 18.297 c 0,37.504 7.4492,72.367 22.137,103.61 14.039002,29.859 34.418002,55.91 60.562002,77.441 49.781,40.98 119.04,63.543 195.01,63.543 74.184,0 143.92,-28.891 196.37,-81.34 52.254,-52.254 81.109,-121.66 81.328,-195.53 0.004,-0.13281 0.0117,-0.26172 0.0117,-0.39844 0,-0.0508 -0.004,-0.0937 -0.004,-0.14062 0,-0.10156 0.004,-0.19531 0.004,-0.29688 0,-0.40625 -0.0234,-0.80469 -0.0391,-1.207 z M 350,519.57 c -119.02,0 -239.11,-63.605 -239.55,-205.67 l 238.32,0.004 c 17.387,0 31.535,14.145 31.535,31.527 0,17.395 -14.141,31.535 -31.535,31.535 L 223,376.962 c -10.527,0 -19.066,8.5391 -19.066,19.074 0,10.5349 8.5391,19.066 19.066,19.066 h 129.54 c 0.26953,0 0.54688,-0.004 0.81641,-0.0234 48.453,-0.42578 87.613,-10.203 116.43,-29.086 35.043,-22.965 53.664,-59.305 53.898,-105.12 0,-0.14062 0.004,-0.29297 0.004,-0.42969 0,-18.168 14.777,-32.934 32.934,-32.934 18.109,0 32.855,14.699 32.93,32.781 -0.14844,131.97 -107.55,239.29 -239.55,239.29 z"
       id="path8127" />
    <path
       d="m 228.74,267.2 c 10.527,0 19.066,-8.5273 19.066,-19.066 0,-49.617 40.363,-89.977 89.977,-89.977 49.617,0 89.98,40.363 89.98,89.977 v 55.844 c 0,10.535 8.5352,19.074 19.066,19.074 10.527,0 19.066,-8.5391 19.066,-19.074 l 0.004,-55.844 c 0,-50.785 -29.695,-94.758 -72.645,-115.48 13.328,-13.848 21.531,-32.664 21.531,-53.355 0,-42.465 -34.547,-77.004 -77.004,-77.004 -42.461,-0.00391 -77.012,34.535 -77.012,77 0,20.699 8.2109,39.508 21.539,53.355 -42.941,20.715 -72.645,64.691 -72.645,115.48 0,10.531 8.5352,19.066 19.074,19.066 z M 337.79,40.43 c 21.438,0 38.871,17.438 38.871,38.863 0,21.438 -17.434,38.871 -38.871,38.871 -21.437,0 -38.871,-17.438 -38.871,-38.871 C 298.915,57.867 316.353,40.43 337.79,40.43 Z"
       id="path8129" />
  </g>
</svg>
