<?xml version="1.0" encoding="UTF-8" standalone="no"?>
<svg
   width="700pt"
   height="700pt"
   version="1.1"
   viewBox="0 0 700 700"
   id="svg10996"
   sodipodi:docname="4.svg"
   inkscape:version="1.2.1 (9c6d41e410, 2022-07-14)"
   xmlns:inkscape="http://www.inkscape.org/namespaces/inkscape"
   xmlns:sodipodi="http://sodipodi.sourceforge.net/DTD/sodipodi-0.dtd"
   xmlns="http://www.w3.org/2000/svg"
   xmlns:svg="http://www.w3.org/2000/svg">
  <defs
     id="defs11000" />
  <sodipodi:namedview
     id="namedview10998"
     pagecolor="#ffffff"
     bordercolor="#000000"
     borderopacity="0.25"
     inkscape:showpageshadow="2"
     inkscape:pageopacity="0.0"
     inkscape:pagecheckerboard="0"
     inkscape:deskcolor="#d1d1d1"
     inkscape:document-units="pt"
     showgrid="false"
     inkscape:zoom="0.31403117"
     inkscape:cx="-323.21632"
     inkscape:cy="12.737589"
     inkscape:window-width="1920"
     inkscape:window-height="1009"
     inkscape:window-x="-8"
     inkscape:window-y="-8"
     inkscape:window-maximized="1"
     inkscape:current-layer="svg10996" />
  <g
     id="g10994"
     inkscape:export-filename="4.png"
     inkscape:export-xdpi="96"
     inkscape:export-ydpi="96">
    <path
       d="m456.69 525c64.82 0 117.56-52.73 117.56-117.54 0-64.82-52.738-117.55-117.56-117.55-64.82 0-117.54 52.73-117.54 117.55 0 64.812 52.723 117.54 117.54 117.54zm0-200.1c45.527 0 82.562 37.035 82.562 82.551 0 45.523-37.035 82.547-82.562 82.547-45.512 0-82.543-37.023-82.543-82.543s37.035-82.555 82.543-82.555z"
       id="path10982" />
    <path
       d="m426.66 441.56c2.8711 4.3672 7.5352 7.2188 12.715 7.793 0.64844 0.066407 1.2812 0.10156 1.9141 0.10156 4.5273 0 8.9219-1.7617 12.203-4.957l50.398-49.004c6.9219-6.7344 7.0742-17.816 0.33984-24.746-6.75-6.9297-17.824-7.082-24.746-0.33984l-35.207 34.23-7.9648-12.141c-5.2969-8.0742-16.168-10.305-24.234-5.0234-8.082 5.3047-10.324 16.16-5.0234 24.234z"
       id="path10984" />
    <path
       d="m125.83 155.75v236.25c0 43.715 35.48 79.281 79.09 79.281l88.203-0.003906c9.6719 0 17.5-7.8359 17.5-17.5 0-9.6641-7.8281-17.5-17.5-17.5h-88.199c-24.32 0-44.09-19.867-44.09-44.281l-0.003907-183.64h324.62v35.59c0 9.6641 7.8281 17.5 17.5 17.5s17.5-7.8359 17.5-17.5v-88.199c0-43.707-35.496-79.27-79.109-79.27h-20.902l0.003906-23.98c0-9.6641-7.8281-17.5-17.5-17.5-9.6719 0-17.5 7.8359-17.5 17.5v23.977h-124.64v-23.977c0-9.6641-7.8281-17.5-17.5-17.5s-17.5 7.8359-17.5 17.5v23.977h-20.883c-43.613 0-79.094 35.566-79.094 79.273zm79.094-44.273h236.42c24.32 0 44.109 19.859 44.109 44.27l-0.003906 17.613h-324.62v-17.609c0-24.414 19.773-44.273 44.094-44.273z"
       id="path10986" />
    <path
       d="m323.46 267.93h-0.17188c-9.6562 0-17.414 7.8359-17.414 17.5 0 9.6641 7.9297 17.5 17.586 17.5 9.6719 0 17.5-7.8359 17.5-17.5 0-9.6641-7.8281-17.5-17.5-17.5z"
       id="path10988" />
    <path
       d="m232.95 267.93h-0.17188c-9.6562 0-17.414 7.8359-17.414 17.5 0 9.6641 7.9297 17.5 17.586 17.5 9.6719 0 17.5-7.8359 17.5-17.5 0-9.6641-7.8281-17.5-17.5-17.5z"
       id="path10990" />
    <path
       d="m232.95 341.69h-0.17188c-9.6562 0-17.414 7.8359-17.414 17.5s7.9297 17.5 17.586 17.5c9.6719 0 17.5-7.8359 17.5-17.5 0-9.668-7.8281-17.5-17.5-17.5z"
       id="path10992" />
  </g>
</svg>
