<?xml version="1.0" encoding="UTF-8" standalone="no"?>
<!-- Created with Inkscape (http://www.inkscape.org/) -->

<svg
   version="1.1"
   id="svg132"
   width="5232.5898"
   height="3304.6997"
   viewBox="0 0 5232.5898 3304.6997"
   sodipodi:docname="TWS Logos.svg"
   xml:space="preserve"
   inkscape:version="1.2 (dc2aedaf03, 2022-05-15)"
   xmlns:inkscape="http://www.inkscape.org/namespaces/inkscape"
   xmlns:sodipodi="http://sodipodi.sourceforge.net/DTD/sodipodi-0.dtd"
   xmlns="http://www.w3.org/2000/svg"
   xmlns:svg="http://www.w3.org/2000/svg"><defs
     id="defs136" /><sodipodi:namedview
     id="namedview134"
     pagecolor="#ffffff"
     bordercolor="#000000"
     borderopacity="0.25"
     inkscape:showpageshadow="2"
     inkscape:pageopacity="0.0"
     inkscape:pagecheckerboard="0"
     inkscape:deskcolor="#d1d1d1"
     showgrid="false"
     inkscape:zoom="0.11313708"
     inkscape:cx="11234.159"
     inkscape:cy="-7756.0775"
     inkscape:window-width="1920"
     inkscape:window-height="1032"
     inkscape:window-x="0"
     inkscape:window-y="0"
     inkscape:window-maximized="1"
     inkscape:current-layer="g138" /><g
     inkscape:groupmode="layer"
     inkscape:label="Image"
     id="g138"
     transform="translate(-10815.864,9233.291)"><rect
       style="fill:#ffffff;fill-opacity:1;stroke-width:87.5735;stroke-linecap:round;stroke-linejoin:round;paint-order:fill markers stroke"
       id="rect748"
       width="5232.5898"
       height="3304.6997"
       x="10815.864"
       y="-9233.291"
       inkscape:export-filename="..\TWS Logo 2.png"
       inkscape:export-xdpi="96"
       inkscape:export-ydpi="96" /><text
       xml:space="preserve"
       style="font-size:800px;line-height:1;font-family:'Bernard MT Condensed';-inkscape-font-specification:'Bernard MT Condensed, Normal';white-space:pre;inline-size:3935.82;display:inline;fill:#4b4b4b;fill-opacity:1;stroke-width:76.7131;stroke-linecap:round;stroke-linejoin:round;paint-order:fill markers stroke"
       x="1670.5397"
       y="2480.6091"
       id="text542"
       transform="matrix(0.86434546,0,0,0.93064719,11018.424,-9272.3534)"><tspan
         x="1670.5397"
         y="2480.6091"
         id="tspan7466">TOPWISE<tspan
   style="font-family:'Arial Rounded MT Bold';-inkscape-font-specification:'Arial Rounded MT Bold, Normal'"
   id="tspan7464">
</tspan></tspan></text><g
       id="g482"
       transform="translate(15175.377,-9275.458)"><path
         style="fill:#1cc491;stroke-width:1.33333"
         d="m -3043.2419,3158.7458 c -33.9511,-5.8477 -50.0223,-10.118 -82.815,-22.0049 -24.5638,-8.904 -107.9872,-43.0484 -124.9663,-51.1475 -11.4619,-5.4673 -20.8851,-9.8353 -53.552,-24.8229 -22.6518,-10.3927 -63.0028,-30.6888 -74,-37.2212 -4.0333,-2.3959 -11.8333,-6.9479 -17.3333,-10.1156 -27.4694,-15.821 -30.7121,-17.7812 -46.6667,-28.2092 -6.2333,-4.0742 -15.5333,-9.9504 -20.6667,-13.0584 -11.791,-7.1391 -31.7325,-21.2394 -50.8216,-35.9351 -18.0983,-13.9329 -31.1742,-23.3629 -33.845,-24.408 -6.4998,-2.5436 -66.184,-52.8232 -118,-99.4065 -50.6826,-45.5643 -142.5337,-141.6532 -162.0905,-169.569 -11.012,-15.7188 -21.1966,-29.5906 -28.0305,-38.1789 -7.679,-9.6504 -18.3315,-24.7144 -27.5507,-38.9601 -3.4806,-5.3784 -10.9889,-16.4784 -16.6851,-24.6667 -21.4454,-30.8277 -48.7469,-72.6479 -54.9822,-84.2212 -3.5559,-6.6 -8.6987,-15.3 -11.4285,-19.3333 -5.4608,-8.0684 -15.9776,-27.0767 -25.8195,-46.6667 -3.5,-6.9667 -6.8112,-13.2667 -7.3582,-14 -5.9149,-7.9301 -39.9482,-85.2891 -48.146,-109.4375 -2.8395,-8.3644 -6.0357,-16.8961 -7.1027,-18.9594 -1.067,-2.0635 -5.6153,-14.2182 -10.1073,-27.0107 -4.492,-12.7925 -9.1164,-25.6591 -10.2764,-28.5924 -5.3581,-13.5499 -15.4859,-42.3568 -18.2817,-52 -10.7197,-36.9733 -21.9031,-80.9439 -25.4339,-100 -0.9511,-5.1333 -4.7896,-23.4333 -8.5299,-40.6667 -3.7403,-17.2333 -7.3611,-34.9333 -8.0463,-39.3333 -0.6852,-4.4 -2.2212,-13.1 -3.4134,-19.3333 -6.9032,-36.0938 -10.7098,-67.869 -13.4972,-112.6667 -1.095,-17.6 -2.4868,-38.9 -3.0927,-47.3333 -1.3257,-18.4507 0.5877,-140.8054 2.6272,-168 0.7975,-10.6334 1.9522,-26.5334 2.566,-35.3334 0.6139,-8.8 2.393,-23.2 3.9537,-32 4.422,-24.9336 5.1818,-29.6508 7.3016,-45.3333 1.0905,-8.0667 3.2712,-19.4667 4.8462,-25.3333 1.575,-5.8667 3.6378,-13.9667 4.5841,-18 l 1.7206,-7.3334 0.1366,7.5194 c 1.2748,70.1569 82.0254,141.0874 160.6779,141.138 l 14.5412,0.013 14.7921,-4.0836 c 21.4966,-5.9344 25.2994,-7.4839 40.7921,-16.6204 7.7,-4.5411 16.1656,-9.2685 18.8125,-10.5057 15.8164,-7.3928 41.129,-37.3123 49.2535,-58.2175 3.293,-8.4732 5.045,-11.8225 4.4844,-8.5728 -0.5059,2.9333 -1.4077,9.5333 -2.0039,14.6667 -2.1723,18.7021 -5.1872,42.9168 -6.6404,53.3333 -0.9367,6.7141 -1.7401,49.2477 -2.168,114.786 l -0.6799,104.1192 1.6576,15.8808 c 0.9117,8.7344 1.8222,18.2807 2.0233,21.214 1.7047,24.8593 5.9547,58.1848 7.9001,61.9468 2.069,4.0009 4.4565,5.3865 9.2817,5.3865 h 3.0362 l 7.3838,-13 c 4.0611,-7.15 9.8109,-18.2584 12.7772,-24.6852 2.9664,-6.4269 6.5587,-13.3269 7.9828,-15.3333 1.4241,-2.0065 5.1054,-8.4481 8.1806,-14.3148 13.9154,-26.5469 18.5176,-34.4773 29.4036,-50.6667 3.4518,-5.1333 7.349,-11.4333 8.6605,-14 7.4819,-14.6426 49.5472,-62.1049 67.3578,-76 4.2299,-3.3 12.4021,-10.2074 18.1604,-15.3498 9.5441,-8.5235 20.3885,-15.617 44.4696,-29.0882 15.8331,-8.857 49.912,-25.873 56,-27.9612 3.3,-1.1318 10.5,-3.9766 16,-6.3218 5.5,-2.3451 16.9,-6.278 25.3333,-8.7398 8.4333,-2.4617 23.4333,-6.8929 33.3333,-9.8469 66.1159,-19.7284 159.0056,-21.4527 222.793,-4.1359 63.3049,17.1859 129.0242,48.5452 169.207,80.7408 4.7667,3.8192 11.6667,8.9596 15.3334,11.4232 25.2815,16.9863 71.6124,65.8396 92.2566,97.2796 2.6483,4.0334 7.0056,10.6743 9.6827,14.7578 15.9395,24.3122 38.1899,78.7885 47.3423,115.9089 1.7177,6.9667 4.0285,16.2667 5.135,20.6667 1.1067,4.4 3.3155,14 4.9086,21.3333 1.593,7.3333 3.4674,15.1327 4.1653,17.3319 0.6979,2.199 2.826,16.599 4.7292,32 l 3.4604,28.0014 0.1133,36.6667 c 0.1384,44.5864 -3.6168,83.7271 -10.9558,114.1936 -7.4052,30.7407 -15.9671,55.3627 -29.8376,85.8064 -18.7807,41.2204 -51.4087,85.818 -96.6306,132.0795 l -26.3694,26.9721 -20.6667,15.5133 c -27.2839,20.4806 -71.2813,44.2059 -104,56.0812 -5.5,1.9963 -16.9,6.1594 -25.3333,9.2514 -17.4699,6.4052 -49.7372,13.7922 -71.3334,16.3306 l -14.6666,1.724 h -68.6667 -68.6667 l -22.6666,-4.2319 c -12.4667,-2.3274 -25.9667,-4.6048 -30,-5.0605 -4.0334,-0.4557 -11.9603,-2.0251 -17.6154,-3.4872 -5.6551,-1.4623 -12.8551,-2.7745 -16,-2.9163 l -5.718,-0.2589 v 2.9849 2.985 l 21.3334,21.5828 c 11.7333,11.8705 24.4068,24.0273 28.1634,27.015 10.1372,8.0627 42.7549,36.5052 51.1699,44.6203 6.9889,6.7396 24.6332,21.7868 32.2217,27.4788 1.9552,1.4665 9.1552,7.1813 16,12.6995 29.6759,23.9242 44.4043,34.4148 84.445,60.1466 4.4,2.8278 12.0712,7.986 17.0471,11.463 4.9759,3.4769 13.2269,8.7297 18.3355,11.6729 5.1086,2.9432 18.4988,10.8667 29.756,17.6079 41.7575,25.0057 76.2709,40.8008 142.1947,65.0756 10.6333,3.9154 27.7333,10.3784 38,14.3622 10.2667,3.9839 27.6667,10.0784 38.6667,13.5434 11,3.4649 22.4,7.2232 25.3333,8.3516 2.9333,1.1284 10.4333,4.022 16.6667,6.4301 6.2333,2.4083 16.869,6.1384 23.345,8.9924 55.1842,24.3198 95.4187,83.2875 92.2711,146.988 -2.1403,43.3109 -15.7765,91.4888 -56.1775,121.2534 -6.5395,5.8243 -27.3247,17.5676 -35.0724,21.4184 -27.8184,13.8271 -65.3562,17.1686 -99.6996,11.2534 z"
         id="path486"
         sodipodi:nodetypes="sssssssssssssssssssssssssssssssssssscsccsssssssscsssscssssssssssssssssssssssscsssccsssscccsssccccssssssssssssssssccss" /><path
         style="fill:#0089b0;stroke-width:1.33333"
         d="m -3995.2419,1595.5857 c -43.7527,-11.3167 -60.5626,-20.7258 -90.5788,-50.6999 -29.6052,-29.5636 -38.8567,-48.2585 -42.0448,-84.9612 l -1.1457,-13.1909 1.7615,-18.9566 c 2.486,-26.7534 9.3065,-66.5785 14.8923,-86.9565 2.6131,-9.5333 5.9227,-21.8333 7.3546,-27.3333 1.4319,-5.5 4.6639,-16.5491 7.1822,-24.5536 2.5183,-8.0044 4.5787,-15.5761 4.5787,-16.8259 0,-4.0656 31.7189,-96.886 35.95,-105.202 1.3298,-2.6135 4.3084,-10.1159 6.6191,-16.6719 4.6232,-13.1166 14.4089,-35.7464 27.4217,-63.4133 4.6563,-9.9 10.6248,-23.1 13.2633,-29.3333 2.6386,-6.2334 5.7532,-13.1334 6.9214,-15.3334 2.5405,-4.7841 21.4893,-42.56709 35.7747,-71.33329 10.9797,-22.10943 12.3428,-24.58225 22.0483,-40 3.4623,-5.5 9.4623,-15.4 13.3335,-22 3.8711,-6.6 16.4051,-25.98479 27.8532,-43.07729 11.4482,-17.09251 21.7838,-32.83208 22.9681,-34.97683 1.1844,-2.14475 4.7501,-7.35996 7.9239,-11.58937 3.1738,-4.22942 8.2048,-10.97538 11.18,-14.99102 2.9752,-4.01565 10.1286,-12.68478 15.8964,-19.26476 10.292,-11.74132 17.559,-20.86588 25.5131,-32.03454 2.2,-3.08911 9.4834,-11.86774 16.1854,-19.50806 6.7019,-7.6403 17.5019,-19.97922 24,-27.41982 24.153,-27.65643 47.6132,-52.50252 54.4429,-57.659 3.8722,-2.92352 12.0649,-10.77882 18.206,-17.45622 6.1411,-6.6774 17.0264,-16.9488 24.1894,-22.82533 7.1631,-5.87653 18.6341,-15.60007 25.4912,-21.60785 11.6278,-10.18766 34.2761,-29.67795 50.6526,-43.58991 3.8847,-3.3 11.1437,-9.3 16.1313,-13.33333 4.9876,-4.03334 13.7074,-11.23334 19.3774,-16 10.5688,-8.88518 29.726,-23.96358 48.6933,-38.32586 10.2461,-7.75849 16.9208,-12.39521 54.0689,-37.55992 9.1089,-6.1705 18.9616,-13.1184 21.8949,-15.43977 2.9334,-2.32136 8.6334,-5.88868 12.6667,-7.92737 4.0333,-2.0387 9.1333,-5.03007 11.3333,-6.6475 2.2,-1.61742 9.9239,-6.1123 17.1641,-9.98861 7.2402,-3.87631 16.8402,-9.42853 21.3333,-12.33828 8.9394,-5.78913 66.0233,-34.43936 68.6184,-34.43936 0.8856,0 6.4157,-2.41623 12.2893,-5.36939 5.8735,-2.95317 13.8102,-6.59417 17.6371,-8.09113 3.8268,-1.49695 12.3578,-5.29791 18.9578,-8.44657 6.6,-3.14868 13.5,-6.19276 15.3334,-6.76464 1.8333,-0.57188 9.6333,-4.01334 17.3333,-7.64768 7.7,-3.63435 17.0529,-7.68354 20.7842,-8.99819 3.7314,-1.31467 7.9314,-3.06795 9.3334,-3.8962 6.4846,-3.83085 78.2055,-29.15081 100.5491,-35.49732 3.3,-0.93733 10.2,-3.20331 15.3333,-5.03549 12.9747,-4.63094 32.6721,-10.82659 45.3333,-14.25926 5.8667,-1.59054 22.2228,-6.14608 36.3469,-10.1234 47.0256,-13.24228 107.1867,-26.48444 135.6531,-29.85876 7.3334,-0.86926 18.1334,-2.40453 24,-3.41169 12.7846,-2.19481 57.9452,-6.54889 89.3334,-8.61293 33.8013,-2.22272 176.3209,-3.27219 196.6667,-1.44818 9.1666,0.82179 25.3666,2.07531 36,2.78559 26.8977,1.79669 78.2872,7.82456 104,12.19896 8.4333,1.43472 22.7164,3.79061 31.7402,5.23532 28.3335,4.53616 69.9532,13.55159 110.2598,23.8838 25.2709,6.47799 32.7618,8.76847 74,22.62672 37.8608,12.72328 81.5485,28.50625 100,36.12675 15.4877,6.39645 26.8762,11.14596 36.6666,15.29146 5.8667,2.48411 14.2667,5.97866 18.6667,7.76566 7.9052,3.21062 52.374,23.13621 84.6332,37.92256 9.1484,4.19321 21.7195,10.53932 27.9359,14.10248 6.2164,3.56316 12.2314,6.80188 13.3668,7.19717 1.1352,0.39529 3.8641,2.03893 6.0641,3.65253 4.0316,2.957 15.5741,9.95987 34,20.62779 5.5,3.18431 14.5,8.62696 20,12.09477 5.5,3.46783 14.2,8.7371 19.3333,11.70951 20.949,12.13027 73.1482,48.04387 105.3334,72.47047 23.7217,18.0033 29.4926,22.64546 40,32.17606 5.8666,5.32131 19.6622,17.15668 30.6569,26.30083 23.3956,19.45795 78.2201,72.06671 100.0008,95.95907 8.3564,9.16666 20.7056,22.66666 27.4425,30 44.6892,48.64532 62.9524,69.21825 84.6307,95.33333 15.9579,19.22389 20.1591,24.57011 48.0264,61.11471 33.3984,43.79796 55.8869,83.8806 68.9009,122.80572 l 6.9362,20.74624 -0.013,26.00002 -0.013,26 -2.4024,8.6666 c -6.8639,24.7611 -31.5155,64.0513 -51.4988,82.08 -23.7907,21.4634 -56.2517,37.3783 -87.2555,42.779 l -12.0778,2.1039 -16,-0.6784 c -21.516,-0.9123 -33.2096,-3.7047 -50.6932,-12.1053 l -14.6934,-7.0598 -19.6789,-18.5597 c -20.9508,-19.759 -36.4576,-37.9885 -54.3505,-63.893 -6.0784,-8.8 -15.4283,-22 -20.7775,-29.3333 -5.3492,-7.3334 -14.9424,-20.5334 -21.318,-29.3334 -6.3757,-8.8 -14.3899,-19.29996 -17.8093,-23.33329 -3.4195,-4.03333 -8.2302,-10.33333 -10.6903,-14 -5.9707,-8.89872 -21.222,-27.91423 -52.4003,-65.33333 -18.2412,-21.89246 -82.8414,-87.8833 -102.9374,-105.15335 -5.8582,-5.03435 -14.8512,-13.17652 -19.9846,-18.09371 -8.6705,-8.30542 -26.9376,-23.6449 -33.5116,-28.14069 -1.5646,-1.07007 -6.9646,-5.27573 -12,-9.34593 -8.013,-6.47727 -35.2573,-26.36568 -59.8217,-43.67027 -4.4,-3.09961 -10.87,-7.14697 -14.3777,-8.99413 -3.5078,-1.84716 -9.6598,-5.458 -13.6712,-8.02407 -4.0114,-2.56608 -12.5415,-7.38255 -18.9556,-10.70328 -6.4142,-3.32072 -14.6622,-8.02996 -18.3288,-10.46497 -9.4532,-6.27784 -27.9314,-16.06976 -47.3334,-25.08299 -9.1666,-4.25837 -17.8666,-8.43267 -19.3333,-9.27621 -4.4459,-2.55708 -28.4871,-14.38374 -29.2391,-14.38374 -0.3862,0 -5.1301,-2.07302 -10.5418,-4.60673 -5.4119,-2.53371 -13.9278,-6.14548 -18.9242,-8.02616 -4.9965,-1.88068 -9.7336,-3.95805 -10.5268,-4.61639 -3.152,-2.61585 -63.0038,-24.91494 -78.768,-29.34669 -2.2,-0.61848 -11.2,-3.23015 -20,-5.80369 -8.8,-2.57355 -18.7,-5.07907 -22,-5.56784 -3.3,-0.48876 -10.2,-1.70144 -15.3333,-2.69486 -11.438,-2.21348 -42.7632,-3.9915 -49.1647,-2.79058 -9.1112,1.70926 -7.6072,10.44098 3.2207,18.69842 43.084,32.85632 100.454,116.07984 123.224,178.75452 2.6643,7.33334 6.8683,18.73334 9.3424,25.33334 13.3049,35.4926 20.1652,58.40545 25.5495,85.33333 1.0264,5.13333 2.7321,12.03333 3.7905,15.33333 13.8341,43.13496 17.0927,119.3132 7.3289,171.33336 -11.1008,59.1438 -14.806,75.8114 -21.3405,96 -13.3559,41.2622 -21.8136,61.5975 -36.6005,88 -5.3392,9.5333 -11.5206,20.9333 -13.7364,25.3333 -2.2158,4.4 -8.7354,14.6074 -14.488,22.6831 -5.7526,8.0757 -11.6592,16.4158 -13.1259,18.5335 -7.7133,11.1373 -11.434,16.1696 -19.3333,26.1498 -4.7667,6.0223 -11.2848,14.3285 -14.4848,18.4583 -8.9483,11.5482 -56.6518,60.6 -69.447,71.4098 -33.4928,28.296 -71.2213,54.7683 -91.4016,64.1323 -4.4,2.0417 -9.5,4.7476 -11.3333,6.0131 -9.4281,6.508 -59.1941,30.2452 -76,36.2501 -70.4115,25.1592 -99.5348,31.9443 -150,34.9464 l -29.3334,1.7449 -32.6666,-1.1374 c -17.9667,-0.6255 -36.5667,-1.6774 -41.3334,-2.3374 -16.0816,-2.2268 -35.2744,-5.6929 -45.3333,-8.187 -5.5,-1.3636 -18.7,-4.5636 -29.3333,-7.1111 -19.8754,-4.7613 -28.5427,-7.4615 -57.3334,-17.8607 -16.7846,-6.0626 -43.5257,-17.115 -46,-19.0124 -0.7333,-0.5624 -8.5333,-4.7488 -17.3333,-9.303 -34.7768,-17.9986 -89.1946,-53.8136 -112.8037,-74.2418 -29.7928,-25.7787 -54.703,-51.5451 -75.1963,-77.781 -5.8667,-7.5106 -12.1984,-15.5367 -14.0706,-17.8359 -1.8722,-2.2991 -6.3438,-8.3803 -9.9369,-13.5136 -3.5931,-5.1333 -8.8113,-12.2372 -11.596,-15.7864 -2.7847,-3.5492 -5.0632,-7.2257 -5.0632,-8.1701 0,-0.9443 -0.8711,-2.44 -1.9359,-3.3237 -6.1697,-5.1203 -27.7355,-47.9199 -47.6532,-94.5726 -18.828,-44.1002 -22.1531,-55.0604 -34.4275,-113.4805 -7.5613,-35.9886 -8.0589,-63.3771 -2.5717,-141.56441 3.039,-43.30332 18.9427,-110.81679 35.2248,-149.53411 4.6802,-11.12916 10.4923,-23.84086 14.6605,-36.16173 3.1064,-12.28108 8.9145,-22.0485 7.6497,-34.47316 -0.8311,-17.50485 -47.1043,23.75914 -55.6379,30.40005 -9.3401,7.33334 -19.2771,15.13334 -22.0821,17.33334 -2.8051,2.2 -10.9406,8.4512 -18.0791,13.89156 -47.3528,36.08857 -168.7488,156.77028 -201.859,200.67122 -12.7211,16.86702 -27.6257,37.18704 -35.0155,47.73814 -4.2499,6.0678 -12.9005,18.2324 -19.2236,27.0324 -6.3231,8.8 -14.7368,21.4 -18.697,28 -3.9602,6.6 -7.5055,10.8562 -9.6147,14.6667 -3.373,6.0938 -16.6019,25.5967 -29.1855,50 -17.2776,33.5064 -18.6454,36.3312 -23.8876,49.3333 -22.9285,56.8699 -34.9762,89.141 -43.8039,117.3333 -4.7072,15.0334 -10.9247,34.8334 -13.8167,44 -5.3518,16.964 -7.2927,24.0529 -17.8884,65.3334 -13.153,51.2441 -15.7877,60.9732 -20.2495,74.7749 -6.5864,20.374 -11.4806,31.6985 -17.0485,39.4487 -6.4106,8.923 -32.0296,33.0886 -38.0735,35.9133 -2.6313,1.2299 -11.0842,5.9513 -18.7842,10.4924 -15.4927,9.1365 -19.2955,10.686 -40.7921,16.6204 l -14.7921,4.0836 -15.2079,-0.065 -15.2079,-0.065 -12,-3.1038 z"
         id="path484"
         sodipodi:nodetypes="ssscsssssssssssssssssssssssssssssssssssssssssssssssssssssssssssssssssssssssssscccssscsscssssssssssssssssssssssssssssssssssssssssssssscsssssssssssssssssscccsssssssssssssssssccccs" /></g><text
       xml:space="preserve"
       style="font-style:normal;font-variant:normal;font-weight:normal;font-stretch:normal;font-size:443.977px;line-height:1;font-family:'Arial Rounded MT Bold';-inkscape-font-specification:'Arial Rounded MT Bold, Normal';font-variant-ligatures:normal;font-variant-caps:normal;font-variant-numeric:normal;font-variant-east-asian:normal;fill:#4b4b4b;fill-opacity:1;stroke-width:63.8604;stroke-linecap:round;stroke-linejoin:round;paint-order:fill markers stroke"
       x="12976.135"
       y="-6460.6392"
       id="text3073"><tspan
         sodipodi:role="line"
         id="tspan3071"
         x="12976.135"
         y="-6460.6392"
         style="font-size:443.977px;fill:#4b4b4b;fill-opacity:1;stroke-width:63.8604">SUPPORT</tspan></text></g></svg>
